<?xml version="1.0" standalone="no"?>
<!DOCTYPE svg PUBLIC "-//W3C//DTD SVG 20010904//EN"
 "http://www.w3.org/TR/2001/REC-SVG-20010904/DTD/svg10.dtd">
<svg version="1.0" xmlns="http://www.w3.org/2000/svg"
 width="180.000000pt" height="180.000000pt" viewBox="0 0 180.000000 180.000000"
 preserveAspectRatio="xMidYMid meet">
<metadata>
Created by potrace 1.14, written by Peter Selinger 2001-2017
</metadata>
<g transform="translate(0.000000,180.000000) scale(0.100000,-0.100000)"
fill="#000000" stroke="none">
<path d="M872 1663 c-58 -4 -66 -7 -102 -43 -29 -29 -40 -48 -40 -70 0 -28 -2
-30 -40 -30 -22 0 -48 -4 -58 -9 -9 -5 -31 -15 -49 -21 -20 -8 -36 -23 -44
-43 -16 -41 -117 -157 -136 -157 -8 0 -13 -7 -11 -17 2 -10 10 -17 19 -16 10
2 18 -11 25 -40 6 -23 14 -50 18 -59 11 -24 -50 -79 -84 -77 -39 2 -43 0 -32
-13 7 -9 7 -29 0 -65 -6 -29 -8 -63 -4 -77 10 -39 33 -32 41 13 7 42 39 67 72
57 15 -5 23 0 31 19 6 14 16 25 21 25 20 0 28 -37 30 -135 2 -91 0 -102 -18
-119 -12 -11 -21 -29 -22 -40 -1 -14 -4 -10 -10 12 -12 39 -37 40 -56 2 l-13
-25 0 27 c0 15 -5 30 -10 33 -6 4 -17 22 -25 41 -18 43 -32 43 -40 2 -14 -72
-17 -76 -31 -43 -7 17 -13 58 -14 92 0 34 -4 65 -10 68 -6 4 -10 -21 -10 -69
0 -58 5 -83 21 -110 12 -20 25 -36 30 -36 5 0 9 -8 9 -19 0 -10 7 -24 15 -31
21 -17 19 -40 -4 -40 -39 0 -51 -10 -38 -31 11 -17 25 -19 140 -19 l128 0 16
-38 c9 -20 18 -66 21 -102 4 -64 3 -66 -24 -79 -52 -24 -118 -41 -159 -41 -69
0 -108 -17 -140 -60 -21 -29 -54 -53 -115 -84 -184 -94 -170 -83 -170 -143 l0
-53 900 0 901 0 -3 72 -3 73 -80 29 c-92 33 -109 39 -149 55 -16 7 -31 9 -34
6 -3 -3 -12 1 -21 9 -9 7 -41 21 -71 31 -35 11 -64 28 -78 47 -25 30 -78 60
-125 72 -22 5 -29 2 -36 -16 -5 -13 -6 -37 -4 -54 11 -72 -33 -152 -93 -172
-38 -12 -57 9 -42 47 5 14 6 31 3 39 -7 18 10 48 46 80 17 15 34 43 38 65 10
40 5 43 -60 38 -14 -1 -36 7 -49 17 -22 18 -23 21 -10 53 8 19 32 52 54 74 32
33 66 89 66 110 0 3 -17 23 -37 46 -26 29 -33 43 -24 48 8 5 10 18 6 34 -6 22
-3 29 19 38 22 10 25 18 24 55 -2 28 -7 44 -15 44 -15 0 -16 -10 -4 -43 12
-32 3 -42 -21 -20 -15 13 -23 14 -43 5 -31 -14 -36 -6 -32 58 2 44 3 45 32 41
17 -1 34 -8 38 -15 6 -8 10 -8 14 2 2 6 15 12 27 12 13 0 31 9 41 20 10 11 26
20 37 20 23 0 24 19 1 27 -25 9 -42 34 -43 59 0 23 17 34 51 34 31 0 22 17
-12 24 -17 3 -63 6 -101 6 -53 0 -70 -4 -75 -15 -3 -9 2 -21 11 -28 15 -11 15
-16 3 -46 -14 -33 -15 -33 -26 -13 -6 11 -11 38 -11 59 0 22 -6 48 -14 59 -15
19 -15 19 -29 -1 -13 -16 -17 -17 -31 -6 -20 16 -20 40 -1 65 8 11 12 29 9 41
-4 16 1 27 17 39 28 19 59 20 148 5 91 -16 126 -51 136 -135 8 -67 33 -154 45
-154 4 0 13 7 20 15 7 8 16 12 21 10 4 -3 12 2 17 10 5 10 15 13 25 9 13 -5
15 -10 6 -20 -13 -16 -6 -30 22 -37 16 -4 23 1 34 27 8 18 12 41 10 52 -2 10
-7 40 -10 67 -4 29 -11 47 -20 47 -16 0 -28 -27 -15 -35 15 -9 12 -51 -5 -65
-19 -16 -32 -6 -44 36 -12 42 -6 60 20 67 32 9 22 34 -40 97 -33 33 -61 68
-63 78 -2 9 -19 24 -38 33 -31 15 -34 20 -32 52 3 32 -1 38 -42 66 -24 17 -56
31 -71 31 -33 0 -61 15 -105 57 -19 18 -37 32 -40 31 -3 -1 -33 -3 -68 -5z
m-16 -837 c-21 -68 -47 -95 -60 -61 -7 19 28 115 46 126 22 14 28 -17 14 -65z
m-6 -161 c0 -8 -4 -17 -10 -20 -6 -4 -10 5 -10 20 0 15 4 24 10 20 6 -3 10
-12 10 -20z"/>
<path d="M50 1521 c0 -26 22 -42 40 -31 13 8 12 10 -2 10 -11 0 -18 8 -18 20
0 11 -4 20 -10 20 -5 0 -10 -8 -10 -19z"/>
<path d="M1310 945 c0 -25 5 -45 10 -45 6 0 10 20 10 45 0 25 -4 45 -10 45 -5
0 -10 -20 -10 -45z"/>
<path d="M1145 910 c4 -6 11 -8 16 -5 14 9 11 15 -7 15 -8 0 -12 -5 -9 -10z"/>
<path d="M1386 715 c-4 -14 -11 -23 -16 -20 -5 3 -13 -2 -18 -12 -7 -11 -23
-17 -44 -18 -27 0 -34 -4 -36 -22 -3 -21 1 -23 45 -25 57 -2 136 2 142 8 8 7
-22 34 -31 28 -6 -4 -9 10 -6 37 2 34 -1 44 -13 47 -11 2 -19 -6 -23 -23z"/>
<path d="M1648 713 c6 -2 18 -2 25 0 6 3 1 5 -13 5 -14 0 -19 -2 -12 -5z"/>
</g>
</svg>
